<svg width="12" height="12" viewBox="0 0 12 12" fill="none" xmlns="http://www.w3.org/2000/svg">
<path fill-rule="evenodd" clip-rule="evenodd" d="M1.28033 0.21967C0.987437 -0.0732233 0.512563 -0.0732233 0.21967 0.21967C-0.0732233 0.512563 -0.0732233 0.987437 0.21967 1.28033L4.93763 5.99829L0.219677 10.7162C-0.0732165 11.0091 -0.0732165 11.484 0.219677 11.7769C0.51257 12.0698 0.987444 12.0698 1.28034 11.7769L5.99829 7.05895L10.7162 11.7769C11.0091 12.0698 11.484 12.0698 11.7769 11.7769C12.0698 11.484 12.0698 11.0091 11.7769 10.7162L7.05895 5.99829L11.7769 1.28033C12.0698 0.987437 12.0698 0.512563 11.7769 0.21967C11.484 -0.0732233 11.0091 -0.0732233 10.7163 0.21967L5.99829 4.93763L1.28033 0.21967Z" fill="#323338"/>
</svg>
