<svg width="12" height="12" viewBox="0 0 12 12" fill="none" xmlns="http://www.w3.org/2000/svg">
<path fill-rule="evenodd" clip-rule="evenodd" d="M1.28228 0.221379C0.98939 -0.0715143 0.514516 -0.0715143 0.221623 0.221379C-0.0712702 0.514272 -0.0712702 0.989146 0.221623 1.28204L4.93958 6L0.22163 10.718C-0.0712633 11.0108 -0.0712633 11.4857 0.22163 11.7786C0.514524 12.0715 0.989397 12.0715 1.28229 11.7786L6.00025 7.06066L10.7182 11.7786C11.0111 12.0715 11.486 12.0715 11.7789 11.7786C12.0718 11.4857 12.0718 11.0108 11.7789 10.718L7.06091 6L11.7789 1.28204C12.0718 0.989146 12.0718 0.514272 11.7789 0.221379C11.486 -0.0715143 11.0111 -0.0715143 10.7182 0.221379L6.00025 4.93934L1.28228 0.221379Z" fill="#B8AC98"/>
</svg>
